ffmpeg started on 2025-05-29 at 15:52:39
Report written to "D:\Convert\FFMetrics\reports\psnr_report-6.txt"
Log level: 32
Command line:
ffmpeg -hide_banner -nostdin -i "G:\\\xc0\xed\xe8\xec\xe5\\\xce\xed\xe3\xee\xe8\xed\xe3\xe8\\!_36_\xce\xf1\xe5\xed\xfc_2024\\JamClub\\\xd0\xe0\xed\xec\xe0 1_2\\[JamClub] Ranma 1_2 - 06 [1080p]_HEVC.mkv" -i "G:\\\xc0\xed\xe8\xec\xe5\\\xce\xed\xe3\xee\xe8\xed\xe3\xe8\\!_36_\xce\xf1\xe5\xed\xfc_2024\\JamClub\\\xd0\xe0\xed\xec\xe0 1_2\\[JamClub] Ranma 1_2 - 06 [1080p].mp4" -lavfi "[0:v]settb=AVTB,setpts=PTS-STARTPTS,format=pix_fmts=yuv420p10,fps=24000/1001,scale=1920:1080:flags=bicubic[main];[1:v]settb=AVTB,setpts=PTS-STARTPTS,format=pix_fmts=yuv420p,fps=24000/1001,scale=1920:1080:flags=bicubic[ref];[main][ref]psnr=eof_action=endall:stats_file='D\\:/Convert/FFMetrics/logs/psnr_logfile-6.txt'" -f null -
Input #0, matroska,webm, from 'G:\Аниме\Онгоинги\!_36_Осень_2024\JamClub\Ранма 1_2\[JamClub] Ranma 1_2 - 06 [1080p]_HEVC.mkv':
  Metadata:
    COMPATIBLE_BRANDS: isomiso2avc1mp41
    MAJOR_BRAND     : isom
    MINOR_VERSION   : 512
    ENCODER         : Lavf61.7.100
  Duration: 00:24:44.40, start: -0.001000, bitrate: 1836 kb/s
  Stream #0:0: Video: hevc (Main 10), yuv420p10le(tv, bt709, progressive), 1920x1080 [SAR 1:1 DAR 16:9], 23.98 fps, 23.98 tbr, 1k tbn (default)
      Metadata:
        HANDLER_NAME    : VideoHandler
        VENDOR_ID       : [0][0][0][0]
        ENCODER         : Lavc61.19.100 libx265
        BPS             : 1649970
        DURATION        : 00:24:44.315708333
        NUMBER_OF_FRAMES: 35588
        NUMBER_OF_BYTES : 306134479
        _STATISTICS_WRITING_APP: mkvpropedit v66.0.0 ('Josie') 64-bit
        _STATISTICS_WRITING_DATE_UTC: 2025-05-29 07:39:16
        _STATISTICS_TAGS: BPS DURATION NUMBER_OF_FRAMES NUMBER_OF_BYTES
  Stream #0:1(eng): Audio: aac (LC), 48000 Hz, stereo, fltp (default)
      Metadata:
        HANDLER_NAME    : SoundHandler
        VENDOR_ID       : [0][0][0][0]
        ENCODER         : Lavc61.19.100 aac
        BPS             : 182391
        DURATION        : 00:24:44.355000000
        NUMBER_OF_FRAMES: 69580
        NUMBER_OF_BYTES : 33841627
        _STATISTICS_WRITING_APP: mkvpropedit v66.0.0 ('Josie') 64-bit
        _STATISTICS_WRITING_DATE_UTC: 2025-05-29 07:39:16
        _STATISTICS_TAGS: BPS DURATION NUMBER_OF_FRAMES NUMBER_OF_BYTES
Input #1, mov,mp4,m4a,3gp,3g2,mj2, from 'G:\Аниме\Онгоинги\!_36_Осень_2024\JamClub\Ранма 1_2\[JamClub] Ranma 1_2 - 06 [1080p].mp4':
  Metadata:
    major_brand     : isom
    minor_version   : 512
    compatible_brands: isomiso2avc1mp41
    encoder         : Lavf60.16.100
  Duration: 00:24:44.38, start: 0.000000, bitrate: 4634 kb/s
  Stream #1:0[0x1](und): Video: h264 (High) (avc1 / 0x31637661), yuv420p(progressive), 1920x1080 [SAR 1:1 DAR 16:9], 4436 kb/s, 23.98 fps, 23.98 tbr, 90k tbn (default)
      Metadata:
        handler_name    : VideoHandler
        vendor_id       : [0][0][0][0]
  Stream #1:1[0x2](eng): Audio: aac (LC) (mp4a / 0x6134706D), 48000 Hz, stereo, fltp, 191 kb/s (default)
      Metadata:
        handler_name    : SoundHandler
        vendor_id       : [0][0][0][0]
Stream mapping:
  Stream #0:0 (hevc) -> settb:default
  Stream #1:0 (h264) -> settb:default
  psnr:default -> Stream #0:0 (wrapped_avframe)
  Stream #0:1 -> #0:1 (aac (native) -> pcm_s16le (native))
Output #0, null, to 'pipe:':
  Metadata:
    COMPATIBLE_BRANDS: isomiso2avc1mp41
    MAJOR_BRAND     : isom
    MINOR_VERSION   : 512
    encoder         : Lavf61.7.100
  Stream #0:0: Video: wrapped_avframe, yuv420p10le(tv, bt709, progressive), 1920x1080 [SAR 1:1 DAR 16:9], q=2-31, 200 kb/s, 23.98 fps, 23.98 tbn
      Metadata:
        encoder         : Lavc61.19.100 wrapped_avframe
  Stream #0:1(eng): Audio: pcm_s16le, 48000 Hz, stereo, s16, 1536 kb/s (default)
      Metadata:
        HANDLER_NAME    : SoundHandler
        VENDOR_ID       : [0][0][0][0]
        _STATISTICS_TAGS: BPS DURATION NUMBER_OF_FRAMES NUMBER_OF_BYTES
        BPS             : 182391
        DURATION        : 00:24:44.355000000
        NUMBER_OF_FRAMES: 69580
        NUMBER_OF_BYTES : 33841627
        _STATISTICS_WRITING_APP: mkvpropedit v66.0.0 ('Josie') 64-bit
        _STATISTICS_WRITING_DATE_UTC: 2025-05-29 07:39:16
        encoder         : Lavc61.19.100 pcm_s16le
frame=  113 fps=0.0 q=-0.0 size=N/A time=00:00:04.71 bitrate=N/A speed=9.25x    frame=  277 fps=268 q=-0.0 size=N/A time=00:00:11.55 bitrate=N/A speed=11.2x    frame=  479 fps=308 q=-0.0 size=N/A time=00:00:19.97 bitrate=N/A speed=12.9x    frame=  732 fps=355 q=-0.0 size=N/A time=00:00:30.53 bitrate=N/A speed=14.8x    frame=  996 fps=385 q=-0.0 size=N/A time=00:00:41.54 bitrate=N/A speed=16.1x    frame= 1253 fps=405 q=-0.0 size=N/A time=00:00:52.26 bitrate=N/A speed=16.9x    frame= 1485 fps=411 q=-0.0 size=N/A time=00:01:01.93 bitrate=N/A speed=17.1x    frame= 1709 fps=415 q=-0.0 size=N/A time=00:01:11.27 bitrate=N/A speed=17.3x    frame= 1861 fps=401 q=-0.0 size=N/A time=00:01:17.61 bitrate=N/A speed=16.7x    frame= 2040 fps=395 q=-0.0 size=N/A time=00:01:25.08 bitrate=N/A speed=16.5x    frame= 2234 fps=394 q=-0.0 size=N/A time=00:01:33.17 bitrate=N/A speed=16.4x    frame= 2395 fps=387 q=-0.0 size=N/A time=00:01:39.89 bitrate=N/A speed=16.1x    frame= 2575 fps=384 q=-0.0 size=N/A time=00:01:47.39 bitrate=N/A speed=  16x    frame= 2735 fps=379 q=-0.0 size=N/A time=00:01:54.07 bitrate=N/A speed=15.8x    frame= 2894 fps=374 q=-0.0 size=N/A time=00:02:00.70 bitrate=N/A speed=15.6x    frame= 3057 fps=371 q=-0.0 size=N/A time=00:02:07.50 bitrate=N/A speed=15.5x    frame= 3206 fps=366 q=-0.0 size=N/A time=00:02:13.71 bitrate=N/A speed=15.2x    frame= 3349 fps=361 q=-0.0 size=N/A time=00:02:19.68 bitrate=N/A speed=15.1x    frame= 3521 fps=359 q=-0.0 size=N/A time=00:02:26.85 bitrate=N/A speed=  15x    frame= 3695 fps=358 q=-0.0 size=N/A time=00:02:34.11 bitrate=N/A speed=14.9x    frame= 3905 fps=361 q=-0.0 size=N/A time=00:02:42.87 bitrate=N/A speed=  15x    frame= 4112 fps=362 q=-0.0 size=N/A time=00:02:51.50 bitrate=N/A speed=15.1x    frame= 4317 fps=364 q=-0.0 size=N/A time=00:03:00.05 bitrate=N/A speed=15.2x    frame= 4535 fps=366 q=-0.0 size=N/A time=00:03:09.14 bitrate=N/A speed=15.3x    frame= 4763 fps=369 q=-0.0 size=N/A time=00:03:18.65 bitrate=N/A speed=15.4x    frame= 4967 fps=370 q=-0.0 size=N/A time=00:03:27.16 bitrate=N/A speed=15.4x    frame= 5143 fps=369 q=-0.0 size=N/A time=00:03:34.50 bitrate=N/A speed=15.4x    frame= 5350 fps=370 q=-0.0 size=N/A time=00:03:43.13 bitrate=N/A speed=15.4x    frame= 5583 fps=373 q=-0.0 size=N/A time=00:03:52.85 bitrate=N/A speed=15.6x    frame= 5822 fps=376 q=-0.0 size=N/A time=00:04:02.82 bitrate=N/A speed=15.7x    frame= 6010 fps=376 q=-0.0 size=N/A time=00:04:10.66 bitrate=N/A speed=15.7x    frame= 6258 fps=379 q=-0.0 size=N/A time=00:04:21.01 bitrate=N/A speed=15.8x    frame= 6524 fps=383 q=-0.0 size=N/A time=00:04:32.10 bitrate=N/A speed=  16x    frame= 6769 fps=386 q=-0.0 size=N/A time=00:04:42.32 bitrate=N/A speed=16.1x    frame= 6932 fps=384 q=-0.0 size=N/A time=00:04:49.12 bitrate=N/A speed=  16x    frame= 7150 fps=385 q=-0.0 size=N/A time=00:04:58.21 bitrate=N/A speed=  16x    frame= 7354 fps=385 q=-0.0 size=N/A time=00:05:06.72 bitrate=N/A speed=16.1x    frame= 7603 fps=388 q=-0.0 size=N/A time=00:05:17.10 bitrate=N/A speed=16.2x    frame= 7786 fps=387 q=-0.0 size=N/A time=00:05:24.74 bitrate=N/A speed=16.1x    frame= 7964 fps=386 q=-0.0 size=N/A time=00:05:32.16 bitrate=N/A speed=16.1x    frame= 8136 fps=385 q=-0.0 size=N/A time=00:05:39.33 bitrate=N/A speed=  16x    frame= 8355 fps=385 q=-0.0 size=N/A time=00:05:48.47 bitrate=N/A speed=16.1x    frame= 8586 fps=387 q=-0.0 size=N/A time=00:05:58.10 bitrate=N/A speed=16.1x    frame= 8831 fps=389 q=-0.0 size=N/A time=00:06:08.32 bitrate=N/A speed=16.2x    frame= 9084 fps=391 q=-0.0 size=N/A time=00:06:18.87 bitrate=N/A speed=16.3x    frame= 9309 fps=392 q=-0.0 size=N/A time=00:06:28.26 bitrate=N/A speed=16.4x    frame= 9571 fps=395 q=-0.0 size=N/A time=00:06:39.19 bitrate=N/A speed=16.5x    frame= 9814 fps=396 q=-0.0 size=N/A time=00:06:49.32 bitrate=N/A speed=16.5x    frame=10077 fps=399 q=-0.0 size=N/A time=00:07:00.29 bitrate=N/A speed=16.6x    frame=10342 fps=401 q=-0.0 size=N/A time=00:07:11.34 bitrate=N/A speed=16.7x    frame=10536 fps=400 q=-0.0 size=N/A time=00:07:19.43 bitrate=N/A speed=16.7x    frame=10750 fps=401 q=-0.0 size=N/A time=00:07:28.36 bitrate=N/A speed=16.7x    frame=10987 fps=402 q=-0.0 size=N/A time=00:07:38.24 bitrate=N/A speed=16.8x    frame=11201 fps=402 q=-0.0 size=N/A time=00:07:47.17 bitrate=N/A speed=16.8x    frame=11424 fps=403 q=-0.0 size=N/A time=00:07:56.47 bitrate=N/A speed=16.8x    frame=11639 fps=403 q=-0.0 size=N/A time=00:08:05.44 bitrate=N/A speed=16.8x    frame=11872 fps=404 q=-0.0 size=N/A time=00:08:15.16 bitrate=N/A speed=16.8x    frame=12123 fps=405 q=-0.0 size=N/A time=00:08:25.63 bitrate=N/A speed=16.9x    frame=12367 fps=406 q=-0.0 size=N/A time=00:08:35.80 bitrate=N/A speed=16.9x    frame=12620 fps=408 q=-0.0 size=N/A time=00:08:46.35 bitrate=N/A speed=  17x    frame=12865 fps=409 q=-0.0 size=N/A time=00:08:56.57 bitrate=N/A speed=  17x    frame=13080 fps=409 q=-0.0 size=N/A time=00:09:05.54 bitrate=N/A speed=17.1x    frame=13287 fps=409 q=-0.0 size=N/A time=00:09:14.17 bitrate=N/A speed=17.1x    frame=13516 fps=409 q=-0.0 size=N/A time=00:09:23.72 bitrate=N/A speed=17.1x    frame=13771 fps=410 q=-0.0 size=N/A time=00:09:34.36 bitrate=N/A speed=17.1x    frame=14018 fps=411 q=-0.0 size=N/A time=00:09:44.66 bitrate=N/A speed=17.2x    frame=14259 fps=412 q=-0.0 size=N/A time=00:09:54.71 bitrate=N/A speed=17.2x    frame=14508 fps=413 q=-0.0 size=N/A time=00:10:05.10 bitrate=N/A speed=17.2x    frame=14746 fps=414 q=-0.0 size=N/A time=00:10:15.03 bitrate=N/A speed=17.3x    frame=14998 fps=415 q=-0.0 size=N/A time=00:10:25.54 bitrate=N/A speed=17.3x    frame=15265 fps=417 q=-0.0 size=N/A time=00:10:36.67 bitrate=N/A speed=17.4x    frame=15509 fps=417 q=-0.0 size=N/A time=00:10:46.85 bitrate=N/A speed=17.4x    frame=15751 fps=418 q=-0.0 size=N/A time=00:10:56.94 bitrate=N/A speed=17.4x    frame=15975 fps=418 q=-0.0 size=N/A time=00:11:06.29 bitrate=N/A speed=17.4x    frame=16178 fps=418 q=-0.0 size=N/A time=00:11:14.75 bitrate=N/A speed=17.4x    frame=16408 fps=418 q=-0.0 size=N/A time=00:11:24.35 bitrate=N/A speed=17.4x    frame=16610 fps=418 q=-0.0 size=N/A time=00:11:32.77 bitrate=N/A speed=17.4x    frame=16809 fps=418 q=-0.0 size=N/A time=00:11:41.07 bitrate=N/A speed=17.4x    frame=17055 fps=418 q=-0.0 size=N/A time=00:11:51.37 bitrate=N/A speed=17.4x    frame=17305 fps=419 q=-0.0 size=N/A time=00:12:01.76 bitrate=N/A speed=17.5x    frame=17533 fps=419 q=-0.0 size=N/A time=00:12:11.27 bitrate=N/A speed=17.5x    frame=17773 fps=420 q=-0.0 size=N/A time=00:12:21.28 bitrate=N/A speed=17.5x    frame=17979 fps=420 q=-0.0 size=N/A time=00:12:29.87 bitrate=N/A speed=17.5x    frame=18200 fps=420 q=-0.0 size=N/A time=00:12:39.09 bitrate=N/A speed=17.5x    frame=18389 fps=419 q=-0.0 size=N/A time=00:12:46.97 bitrate=N/A speed=17.5x    frame=18632 fps=420 q=-0.0 size=N/A time=00:12:57.10 bitrate=N/A speed=17.5x    frame=18865 fps=420 q=-0.0 size=N/A time=00:13:06.82 bitrate=N/A speed=17.5x    frame=19064 fps=420 q=-0.0 size=N/A time=00:13:15.12 bitrate=N/A speed=17.5x    frame=19274 fps=420 q=-0.0 size=N/A time=00:13:23.88 bitrate=N/A speed=17.5x    frame=19502 fps=420 q=-0.0 size=N/A time=00:13:33.39 bitrate=N/A speed=17.5x    frame=19744 fps=420 q=-0.0 size=N/A time=00:13:43.48 bitrate=N/A speed=17.5x    frame=19967 fps=421 q=-0.0 size=N/A time=00:13:52.79 bitrate=N/A speed=17.5x    frame=20222 fps=421 q=-0.0 size=N/A time=00:14:03.42 bitrate=N/A speed=17.6x    frame=20423 fps=421 q=-0.0 size=N/A time=00:14:11.80 bitrate=N/A speed=17.6x    frame=20641 fps=421 q=-0.0 size=N/A time=00:14:20.90 bitrate=N/A speed=17.6x    frame=20889 fps=422 q=-0.0 size=N/A time=00:14:31.24 bitrate=N/A speed=17.6x    frame=21127 fps=422 q=-0.0 size=N/A time=00:14:41.17 bitrate=N/A speed=17.6x    frame=21354 fps=422 q=-0.0 size=N/A time=00:14:50.63 bitrate=N/A speed=17.6x    frame=21592 fps=423 q=-0.0 size=N/A time=00:15:00.56 bitrate=N/A speed=17.6x    frame=21841 fps=423 q=-0.0 size=N/A time=00:15:10.95 bitrate=N/A speed=17.7x    frame=22100 fps=424 q=-0.0 size=N/A time=00:15:21.75 bitrate=N/A speed=17.7x    frame=22357 fps=425 q=-0.0 size=N/A time=00:15:32.47 bitrate=N/A speed=17.7x    frame=22606 fps=425 q=-0.0 size=N/A time=00:15:42.85 bitrate=N/A speed=17.7x    frame=22835 fps=426 q=-0.0 size=N/A time=00:15:52.40 bitrate=N/A speed=17.7x    frame=23083 fps=426 q=-0.0 size=N/A time=00:16:02.75 bitrate=N/A speed=17.8x    frame=23280 fps=426 q=-0.0 size=N/A time=00:16:10.97 bitrate=N/A speed=17.8x    frame=23510 fps=426 q=-0.0 size=N/A time=00:16:20.56 bitrate=N/A speed=17.8x    frame=23720 fps=426 q=-0.0 size=N/A time=00:16:29.32 bitrate=N/A speed=17.8x    frame=23930 fps=426 q=-0.0 size=N/A time=00:16:38.08 bitrate=N/A speed=17.8x    frame=24197 fps=426 q=-0.0 size=N/A time=00:16:49.21 bitrate=N/A speed=17.8x    frame=24430 fps=427 q=-0.0 size=N/A time=00:16:58.93 bitrate=N/A speed=17.8x    frame=24629 fps=426 q=-0.0 size=N/A time=00:17:07.23 bitrate=N/A speed=17.8x    frame=24858 fps=426 q=-0.0 size=N/A time=00:17:16.78 bitrate=N/A speed=17.8x    frame=25103 fps=427 q=-0.0 size=N/A time=00:17:27.00 bitrate=N/A speed=17.8x    frame=25313 fps=427 q=-0.0 size=N/A time=00:17:35.76 bitrate=N/A speed=17.8x    frame=25560 fps=427 q=-0.0 size=N/A time=00:17:46.06 bitrate=N/A speed=17.8x    frame=25814 fps=428 q=-0.0 size=N/A time=00:17:56.65 bitrate=N/A speed=17.8x    frame=26046 fps=428 q=-0.0 size=N/A time=00:18:06.33 bitrate=N/A speed=17.8x    frame=26270 fps=428 q=-0.0 size=N/A time=00:18:15.67 bitrate=N/A speed=17.8x    frame=26518 fps=428 q=-0.0 size=N/A time=00:18:26.02 bitrate=N/A speed=17.9x    frame=26804 fps=429 q=-0.0 size=N/A time=00:18:37.95 bitrate=N/A speed=17.9x    frame=27051 fps=430 q=-0.0 size=N/A time=00:18:48.25 bitrate=N/A speed=17.9x    frame=27265 fps=430 q=-0.0 size=N/A time=00:18:57.17 bitrate=N/A speed=17.9x    frame=27476 fps=429 q=-0.0 size=N/A time=00:19:05.97 bitrate=N/A speed=17.9x    frame=27671 fps=429 q=-0.0 size=N/A time=00:19:14.11 bitrate=N/A speed=17.9x    frame=27884 fps=429 q=-0.0 size=N/A time=00:19:22.99 bitrate=N/A speed=17.9x    frame=28100 fps=429 q=-0.0 size=N/A time=00:19:32.00 bitrate=N/A speed=17.9x    frame=28370 fps=430 q=-0.0 size=N/A time=00:19:43.26 bitrate=N/A speed=17.9x    frame=28639 fps=430 q=-0.0 size=N/A time=00:19:54.48 bitrate=N/A speed=17.9x    frame=28905 fps=431 q=-0.0 size=N/A time=00:20:05.57 bitrate=N/A speed=  18x    frame=29176 fps=432 q=-0.0 size=N/A time=00:20:16.88 bitrate=N/A speed=  18x    frame=29429 fps=432 q=-0.0 size=N/A time=00:20:27.43 bitrate=N/A speed=  18x    frame=29659 fps=432 q=-0.0 size=N/A time=00:20:37.02 bitrate=N/A speed=  18x    frame=29879 fps=432 q=-0.0 size=N/A time=00:20:46.20 bitrate=N/A speed=  18x    frame=30088 fps=432 q=-0.0 size=N/A time=00:20:54.92 bitrate=N/A speed=  18x    frame=30281 fps=432 q=-0.0 size=N/A time=00:21:02.97 bitrate=N/A speed=  18x    frame=30508 fps=432 q=-0.0 size=N/A time=00:21:12.43 bitrate=N/A speed=  18x    frame=30759 fps=432 q=-0.0 size=N/A time=00:21:22.90 bitrate=N/A speed=  18x    frame=31012 fps=432 q=-0.0 size=N/A time=00:21:33.45 bitrate=N/A speed=  18x    frame=31233 fps=433 q=-0.0 size=N/A time=00:21:42.67 bitrate=N/A speed=  18x    frame=31496 fps=433 q=-0.0 size=N/A time=00:21:53.64 bitrate=N/A speed=18.1x    frame=31687 fps=433 q=-0.0 size=N/A time=00:22:01.61 bitrate=N/A speed=  18x    frame=31868 fps=432 q=-0.0 size=N/A time=00:22:09.16 bitrate=N/A speed=  18x    frame=32024 fps=431 q=-0.0 size=N/A time=00:22:15.66 bitrate=N/A speed=  18x    frame=32169 fps=430 q=-0.0 size=N/A time=00:22:21.71 bitrate=N/A speed=17.9x    frame=32312 fps=429 q=-0.0 size=N/A time=00:22:27.67 bitrate=N/A speed=17.9x    frame=32509 fps=429 q=-0.0 size=N/A time=00:22:35.89 bitrate=N/A speed=17.9x    frame=32711 fps=428 q=-0.0 size=N/A time=00:22:44.32 bitrate=N/A speed=17.9x    frame=32859 fps=428 q=-0.0 size=N/A time=00:22:50.49 bitrate=N/A speed=17.8x    frame=33036 fps=427 q=-0.0 size=N/A time=00:22:57.87 bitrate=N/A speed=17.8x    frame=33228 fps=427 q=-0.0 size=N/A time=00:23:05.88 bitrate=N/A speed=17.8x    frame=33440 fps=427 q=-0.0 size=N/A time=00:23:14.72 bitrate=N/A speed=17.8x    frame=33649 fps=426 q=-0.0 size=N/A time=00:23:23.44 bitrate=N/A speed=17.8x    frame=33932 fps=427 q=-0.0 size=N/A time=00:23:35.24 bitrate=N/A speed=17.8x    frame=34221 fps=428 q=-0.0 size=N/A time=00:23:47.30 bitrate=N/A speed=17.8x    frame=34510 fps=429 q=-0.0 size=N/A time=00:23:59.35 bitrate=N/A speed=17.9x    frame=34800 fps=430 q=-0.0 size=N/A time=00:24:11.45 bitrate=N/A speed=17.9x    frame=35080 fps=430 q=-0.0 size=N/A time=00:24:23.12 bitrate=N/A speed=  18x    frame=35381 fps=431 q=-0.0 size=N/A time=00:24:35.68 bitrate=N/A speed=  18x    [Parsed_psnr_10 @ 0000014f1300eb80] PSNR y:46.946087 u:49.590547 v:49.641045 average:47.667595 min:37.214643 max:inf
[out#0/null @ 0000014f0dcdd040] video:15292KiB audio:278320KiB subtitle:0KiB other streams:0KiB global headers:0KiB muxing overhead: unknown
frame=35588 fps=432 q=-0.0 Lsize=N/A time=00:24:44.31 bitrate=N/A speed=  18x    
